<svg width="24" height="24" viewBox="0 0 24 24" fill="none" xmlns="http://www.w3.org/2000/svg">
<path d="M1.91016 3.75C1.91016 3.33579 2.24594 3 2.66016 3H8.83331C9.24752 3 9.58331 3.33579 9.58331 3.75V9.80892C9.58331 10.2231 9.24752 10.5589 8.83331 10.5589H2.66016C2.24594 10.5589 1.91016 10.2231 1.91016 9.80892V3.75Z" fill="#B3B3B3"/>
<path d="M1.91016 12.3888C1.91016 11.9746 2.24594 11.6388 2.66016 11.6388H8.83331C9.24752 11.6388 9.58331 11.9746 9.58331 12.3888V18.4477C9.58331 18.8619 9.24752 19.1977 8.83331 19.1977H2.66016C2.24594 19.1977 1.91016 18.8619 1.91016 18.4477V12.3888Z" fill="#B3B3B3"/>
<path d="M10.6795 3.75C10.6795 3.33579 11.0153 3 11.4295 3H17.6026C18.0168 3 18.3526 3.33579 18.3526 3.75V9.80892C18.3526 10.2231 18.0168 10.5589 17.6026 10.5589H11.4295C11.0153 10.5589 10.6795 10.2231 10.6795 9.80892V3.75Z" fill="#B3B3B3"/>
<circle cx="14.6602" cy="14.25" r="5.30357" stroke="#121212" stroke-width="2.89286"/>
<circle cx="14.6602" cy="14.25" r="4.125" stroke="#B3B3B3" stroke-width="2.25"/>
<rect x="18.3418" y="15.2246" width="4.94405" height="2.19356" rx="1.09678" transform="rotate(40.7195 18.3418 15.2246)" fill="#B3B3B3"/>
</svg>
